<svg xmlns="http://www.w3.org/2000/svg" xmlns:xlink="http://www.w3.org/1999/xlink" width="480" zoomAndPan="magnify" viewBox="0 0 360 359.999987" height="480" preserveAspectRatio="xMidYMid meet" version="1.0"><defs><clipPath id="9a8f9c68e1"><path d="M 0 82.382812 L 194.65625 82.382812 L 194.65625 294.632812 L 0 294.632812 Z M 0 82.382812 " clip-rule="nonzero"/></clipPath><clipPath id="bc70c4c22c"><path d="M 195.015625 72.382812 L 360 72.382812 L 360 309.382812 L 195.015625 309.382812 Z M 195.015625 72.382812 " clip-rule="nonzero"/></clipPath></defs><rect x="-36" width="432" fill="#ffffff" y="-35.999999" height="431.999984" fill-opacity="1"/><rect x="-36" width="432" fill="#ffd235" y="-35.999999" height="431.999984" fill-opacity="1"/><g clip-path="url(#9a8f9c68e1)"><path fill="#000000" d="M 195.027344 119.707031 L 157.707031 82.382812 L 88.71875 151.367188 L 19.730469 82.382812 L -17.59375 119.707031 L 51.394531 188.695312 L -17.59375 257.683594 L 19.730469 295.003906 L 88.71875 226.019531 L 157.707031 295.003906 L 195.027344 257.683594 L 126.042969 188.695312 L 195.027344 119.707031 " fill-opacity="1" fill-rule="nonzero"/></g><g clip-path="url(#bc70c4c22c)"><path fill="#000000" d="M 297.945312 309.382812 L 266.324219 309.382812 C 264.144531 309.382812 262.375 307.613281 262.375 305.433594 L 262.375 144.683594 L 224.445312 181.851562 C 222.910156 183.355469 220.460938 183.363281 218.921875 181.859375 L 196.382812 159.925781 C 195.621094 159.183594 195.183594 158.164062 195.183594 157.097656 C 195.183594 156.03125 195.617188 155.011719 196.382812 154.269531 L 279.378906 73.503906 C 280.914062 72.011719 283.359375 72.011719 284.894531 73.503906 L 367.890625 154.269531 C 368.65625 155.011719 369.085938 156.03125 369.085938 157.097656 C 369.085938 158.164062 368.65625 159.183594 367.890625 159.925781 L 345.351562 181.859375 C 343.816406 183.351562 341.359375 183.355469 339.828125 181.851562 L 301.898438 144.683594 L 301.898438 305.433594 C 301.898438 307.613281 300.125 309.382812 297.945312 309.382812 Z M 297.945312 309.382812 " fill-opacity="1" fill-rule="nonzero"/></g></svg>