<svg xmlns="http://www.w3.org/2000/svg" xmlns:xlink="http://www.w3.org/1999/xlink" width="1056" zoomAndPan="magnify" viewBox="0 0 792 611.999999" height="816" preserveAspectRatio="xMidYMid meet" version="1.0"><defs><clipPath id="ff997d5bd0"><path d="M 8.503906 39.574219 L 446 39.574219 L 446 531.574219 L 8.503906 531.574219 Z M 8.503906 39.574219 " clip-rule="nonzero"/></clipPath><clipPath id="f81136adee"><path d="M 457 16 L 773 16 L 773 592 L 457 592 Z M 457 16 " clip-rule="nonzero"/></clipPath><clipPath id="62eca29b6f"><path d="M 594 -20.140625 L 857.539062 135.367188 L 588.453125 591.394531 L 324.914062 435.890625 Z M 594 -20.140625 " clip-rule="nonzero"/></clipPath><clipPath id="f294cc9afa"><path d="M 594 -20.140625 L 857.539062 135.367188 L 588.453125 591.394531 L 324.914062 435.890625 Z M 594 -20.140625 " clip-rule="nonzero"/></clipPath><clipPath id="b94888c902"><path d="M 594 -20.140625 L 857.539062 135.367188 L 588.453125 591.394531 L 324.914062 435.890625 Z M 594 -20.140625 " clip-rule="nonzero"/></clipPath><clipPath id="b465bd5d0f"><path d="M 479 199 L 495 199 L 495 220 L 479 220 Z M 479 199 " clip-rule="nonzero"/></clipPath><clipPath id="40e8371b90"><path d="M 594 -20.140625 L 857.539062 135.367188 L 588.453125 591.394531 L 324.914062 435.890625 Z M 594 -20.140625 " clip-rule="nonzero"/></clipPath><clipPath id="515807830e"><path d="M 594 -20.140625 L 857.539062 135.367188 L 588.453125 591.394531 L 324.914062 435.890625 Z M 594 -20.140625 " clip-rule="nonzero"/></clipPath><clipPath id="aea001e9a2"><path d="M 594 -20.140625 L 857.539062 135.367188 L 588.453125 591.394531 L 324.914062 435.890625 Z M 594 -20.140625 " clip-rule="nonzero"/></clipPath><clipPath id="bc8bd4a349"><path d="M 625 376 L 635 376 L 635 388 L 625 388 Z M 625 376 " clip-rule="nonzero"/></clipPath><clipPath id="f11d28d0c8"><path d="M 594 -20.140625 L 857.539062 135.367188 L 588.453125 591.394531 L 324.914062 435.890625 Z M 594 -20.140625 " clip-rule="nonzero"/></clipPath><clipPath id="16dffec54b"><path d="M 594 -20.140625 L 857.539062 135.367188 L 588.453125 591.394531 L 324.914062 435.890625 Z M 594 -20.140625 " clip-rule="nonzero"/></clipPath><clipPath id="bfd089fe35"><path d="M 594 -20.140625 L 857.539062 135.367188 L 588.453125 591.394531 L 324.914062 435.890625 Z M 594 -20.140625 " clip-rule="nonzero"/></clipPath><clipPath id="5afaf9ca9e"><path d="M 602 382 L 610 382 L 610 397 L 602 397 Z M 602 382 " clip-rule="nonzero"/></clipPath><clipPath id="50b648cad3"><path d="M 594 -20.140625 L 857.539062 135.367188 L 588.453125 591.394531 L 324.914062 435.890625 Z M 594 -20.140625 " clip-rule="nonzero"/></clipPath><clipPath id="a2a6208073"><path d="M 594 -20.140625 L 857.539062 135.367188 L 588.453125 591.394531 L 324.914062 435.890625 Z M 594 -20.140625 " clip-rule="nonzero"/></clipPath><clipPath id="ea18c8b34a"><path d="M 594 -20.140625 L 857.539062 135.367188 L 588.453125 591.394531 L 324.914062 435.890625 Z M 594 -20.140625 " clip-rule="nonzero"/></clipPath><clipPath id="026629a91d"><path d="M 476 193 L 489 193 L 489 212 L 476 212 Z M 476 193 " clip-rule="nonzero"/></clipPath><clipPath id="697ba800f3"><path d="M 594 -20.140625 L 857.539062 135.367188 L 588.453125 591.394531 L 324.914062 435.890625 Z M 594 -20.140625 " clip-rule="nonzero"/></clipPath><clipPath id="fa5bc3a483"><path d="M 594 -20.140625 L 857.539062 135.367188 L 588.453125 591.394531 L 324.914062 435.890625 Z M 594 -20.140625 " clip-rule="nonzero"/></clipPath><clipPath id="24682e7260"><path d="M 594 -20.140625 L 857.539062 135.367188 L 588.453125 591.394531 L 324.914062 435.890625 Z M 594 -20.140625 " clip-rule="nonzero"/></clipPath><clipPath id="ea22ffd634"><path d="M 602 401 L 610 401 L 610 411 L 602 411 Z M 602 401 " clip-rule="nonzero"/></clipPath><clipPath id="4263b9c225"><path d="M 594 -20.140625 L 857.539062 135.367188 L 588.453125 591.394531 L 324.914062 435.890625 Z M 594 -20.140625 " clip-rule="nonzero"/></clipPath><clipPath id="3ecf55f1b1"><path d="M 594 -20.140625 L 857.539062 135.367188 L 588.453125 591.394531 L 324.914062 435.890625 Z M 594 -20.140625 " clip-rule="nonzero"/></clipPath><clipPath id="0a6d4e211b"><path d="M 594 -20.140625 L 857.539062 135.367188 L 588.453125 591.394531 L 324.914062 435.890625 Z M 594 -20.140625 " clip-rule="nonzero"/></clipPath><clipPath id="34aab3bdd5"><path d="M 612 409 L 616 409 L 616 424 L 612 424 Z M 612 409 " clip-rule="nonzero"/></clipPath><clipPath id="2e88cbb251"><path d="M 594 -20.140625 L 857.539062 135.367188 L 588.453125 591.394531 L 324.914062 435.890625 Z M 594 -20.140625 " clip-rule="nonzero"/></clipPath><clipPath id="6cfeccffdf"><path d="M 594 -20.140625 L 857.539062 135.367188 L 588.453125 591.394531 L 324.914062 435.890625 Z M 594 -20.140625 " clip-rule="nonzero"/></clipPath><clipPath id="e63682baaa"><path d="M 594 -20.140625 L 857.539062 135.367188 L 588.453125 591.394531 L 324.914062 435.890625 Z M 594 -20.140625 " clip-rule="nonzero"/></clipPath><clipPath id="291514534e"><path d="M 500 188 L 509 188 L 509 197 L 500 197 Z M 500 188 " clip-rule="nonzero"/></clipPath><clipPath id="425273227f"><path d="M 594 -20.140625 L 857.539062 135.367188 L 588.453125 591.394531 L 324.914062 435.890625 Z M 594 -20.140625 " clip-rule="nonzero"/></clipPath><clipPath id="a682a8e64f"><path d="M 594 -20.140625 L 857.539062 135.367188 L 588.453125 591.394531 L 324.914062 435.890625 Z M 594 -20.140625 " clip-rule="nonzero"/></clipPath><clipPath id="770c564a09"><path d="M 594 -20.140625 L 857.539062 135.367188 L 588.453125 591.394531 L 324.914062 435.890625 Z M 594 -20.140625 " clip-rule="nonzero"/></clipPath><clipPath id="27bce879b9"><path d="M 637 363 L 643 363 L 643 371 L 637 371 Z M 637 363 " clip-rule="nonzero"/></clipPath><clipPath id="2f0b02b7ca"><path d="M 594 -20.140625 L 857.539062 135.367188 L 588.453125 591.394531 L 324.914062 435.890625 Z M 594 -20.140625 " clip-rule="nonzero"/></clipPath><clipPath id="c60056cf85"><path d="M 594 -20.140625 L 857.539062 135.367188 L 588.453125 591.394531 L 324.914062 435.890625 Z M 594 -20.140625 " clip-rule="nonzero"/></clipPath><clipPath id="62e2265366"><path d="M 594 -20.140625 L 857.539062 135.367188 L 588.453125 591.394531 L 324.914062 435.890625 Z M 594 -20.140625 " clip-rule="nonzero"/></clipPath><clipPath id="396a3541f5"><path d="M 611 424 L 616 424 L 616 434 L 611 434 Z M 611 424 " clip-rule="nonzero"/></clipPath><clipPath id="9482480946"><path d="M 594 -20.140625 L 857.539062 135.367188 L 588.453125 591.394531 L 324.914062 435.890625 Z M 594 -20.140625 " clip-rule="nonzero"/></clipPath><clipPath id="4cf87e00e8"><path d="M 594 -20.140625 L 857.539062 135.367188 L 588.453125 591.394531 L 324.914062 435.890625 Z M 594 -20.140625 " clip-rule="nonzero"/></clipPath><clipPath id="2301f644b7"><path d="M 594 -20.140625 L 857.539062 135.367188 L 588.453125 591.394531 L 324.914062 435.890625 Z M 594 -20.140625 " clip-rule="nonzero"/></clipPath><clipPath id="b0b886499b"><path d="M 625 397 L 631 397 L 631 405 L 625 405 Z M 625 397 " clip-rule="nonzero"/></clipPath><clipPath id="a74c284a86"><path d="M 594 -20.140625 L 857.539062 135.367188 L 588.453125 591.394531 L 324.914062 435.890625 Z M 594 -20.140625 " clip-rule="nonzero"/></clipPath><clipPath id="386316859f"><path d="M 594 -20.140625 L 857.539062 135.367188 L 588.453125 591.394531 L 324.914062 435.890625 Z M 594 -20.140625 " clip-rule="nonzero"/></clipPath><clipPath id="f7bde45795"><path d="M 594 -20.140625 L 857.539062 135.367188 L 588.453125 591.394531 L 324.914062 435.890625 Z M 594 -20.140625 " clip-rule="nonzero"/></clipPath><clipPath id="03ec564bb5"><path d="M 498 204 L 504 204 L 504 210 L 498 210 Z M 498 204 " clip-rule="nonzero"/></clipPath><clipPath id="2997fd788a"><path d="M 594 -20.140625 L 857.539062 135.367188 L 588.453125 591.394531 L 324.914062 435.890625 Z M 594 -20.140625 " clip-rule="nonzero"/></clipPath><clipPath id="3813e70c7c"><path d="M 594 -20.140625 L 857.539062 135.367188 L 588.453125 591.394531 L 324.914062 435.890625 Z M 594 -20.140625 " clip-rule="nonzero"/></clipPath><clipPath id="7332693551"><path d="M 594 -20.140625 L 857.539062 135.367188 L 588.453125 591.394531 L 324.914062 435.890625 Z M 594 -20.140625 " clip-rule="nonzero"/></clipPath><clipPath id="f0e64de1ca"><path d="M 638 375 L 643 375 L 643 383 L 638 383 Z M 638 375 " clip-rule="nonzero"/></clipPath><clipPath id="4dbcea01ac"><path d="M 594 -20.140625 L 857.539062 135.367188 L 588.453125 591.394531 L 324.914062 435.890625 Z M 594 -20.140625 " clip-rule="nonzero"/></clipPath><clipPath id="0b4ba30e8f"><path d="M 594 -20.140625 L 857.539062 135.367188 L 588.453125 591.394531 L 324.914062 435.890625 Z M 594 -20.140625 " clip-rule="nonzero"/></clipPath><clipPath id="63c06d1a2e"><path d="M 594 -20.140625 L 857.539062 135.367188 L 588.453125 591.394531 L 324.914062 435.890625 Z M 594 -20.140625 " clip-rule="nonzero"/></clipPath><clipPath id="97d2175ef8"><path d="M 612 438 L 616 438 L 616 447 L 612 447 Z M 612 438 " clip-rule="nonzero"/></clipPath><clipPath id="bb4b9d964a"><path d="M 594 -20.140625 L 857.539062 135.367188 L 588.453125 591.394531 L 324.914062 435.890625 Z M 594 -20.140625 " clip-rule="nonzero"/></clipPath><clipPath id="2ae85d915e"><path d="M 594 -20.140625 L 857.539062 135.367188 L 588.453125 591.394531 L 324.914062 435.890625 Z M 594 -20.140625 " clip-rule="nonzero"/></clipPath><clipPath id="b0abea5741"><path d="M 594 -20.140625 L 857.539062 135.367188 L 588.453125 591.394531 L 324.914062 435.890625 Z M 594 -20.140625 " clip-rule="nonzero"/></clipPath><clipPath id="0a1d552d02"><path d="M 612 391 L 615 391 L 615 399 L 612 399 Z M 612 391 " clip-rule="nonzero"/></clipPath><clipPath id="41059f78db"><path d="M 594 -20.140625 L 857.539062 135.367188 L 588.453125 591.394531 L 324.914062 435.890625 Z M 594 -20.140625 " clip-rule="nonzero"/></clipPath><clipPath id="fcca556b45"><path d="M 594 -20.140625 L 857.539062 135.367188 L 588.453125 591.394531 L 324.914062 435.890625 Z M 594 -20.140625 " clip-rule="nonzero"/></clipPath><clipPath id="156be193be"><path d="M 594 -20.140625 L 857.539062 135.367188 L 588.453125 591.394531 L 324.914062 435.890625 Z M 594 -20.140625 " clip-rule="nonzero"/></clipPath><clipPath id="46d07717fa"><path d="M 636 386 L 640 386 L 640 392 L 636 392 Z M 636 386 " clip-rule="nonzero"/></clipPath><clipPath id="019140939d"><path d="M 594 -20.140625 L 857.539062 135.367188 L 588.453125 591.394531 L 324.914062 435.890625 Z M 594 -20.140625 " clip-rule="nonzero"/></clipPath><clipPath id="35e9b0d6a4"><path d="M 594 -20.140625 L 857.539062 135.367188 L 588.453125 591.394531 L 324.914062 435.890625 Z M 594 -20.140625 " clip-rule="nonzero"/></clipPath><clipPath id="21ba382c65"><path d="M 594 -20.140625 L 857.539062 135.367188 L 588.453125 591.394531 L 324.914062 435.890625 Z M 594 -20.140625 " clip-rule="nonzero"/></clipPath><clipPath id="ae7ba1d3e7"><path d="M 495 210 L 500 210 L 500 215 L 495 215 Z M 495 210 " clip-rule="nonzero"/></clipPath><clipPath id="8744823348"><path d="M 594 -20.140625 L 857.539062 135.367188 L 588.453125 591.394531 L 324.914062 435.890625 Z M 594 -20.140625 " clip-rule="nonzero"/></clipPath><clipPath id="e71143fee2"><path d="M 594 -20.140625 L 857.539062 135.367188 L 588.453125 591.394531 L 324.914062 435.890625 Z M 594 -20.140625 " clip-rule="nonzero"/></clipPath><clipPath id="357153d8c9"><path d="M 594 -20.140625 L 857.539062 135.367188 L 588.453125 591.394531 L 324.914062 435.890625 Z M 594 -20.140625 " clip-rule="nonzero"/></clipPath><clipPath id="6cb74f2580"><path d="M 499 198 L 504 198 L 504 203 L 499 203 Z M 499 198 " clip-rule="nonzero"/></clipPath><clipPath id="0940639024"><path d="M 594 -20.140625 L 857.539062 135.367188 L 588.453125 591.394531 L 324.914062 435.890625 Z M 594 -20.140625 " clip-rule="nonzero"/></clipPath><clipPath id="bf4f19d97a"><path d="M 594 -20.140625 L 857.539062 135.367188 L 588.453125 591.394531 L 324.914062 435.890625 Z M 594 -20.140625 " clip-rule="nonzero"/></clipPath><clipPath id="cef31aa15c"><path d="M 594 -20.140625 L 857.539062 135.367188 L 588.453125 591.394531 L 324.914062 435.890625 Z M 594 -20.140625 " clip-rule="nonzero"/></clipPath><clipPath id="60b411528a"><path d="M 615 310 L 619 310 L 619 316 L 615 316 Z M 615 310 " clip-rule="nonzero"/></clipPath><clipPath id="66e99b10f2"><path d="M 594 -20.140625 L 857.539062 135.367188 L 588.453125 591.394531 L 324.914062 435.890625 Z M 594 -20.140625 " clip-rule="nonzero"/></clipPath><clipPath id="bf423e0654"><path d="M 594 -20.140625 L 857.539062 135.367188 L 588.453125 591.394531 L 324.914062 435.890625 Z M 594 -20.140625 " clip-rule="nonzero"/></clipPath><clipPath id="68e6fa8d2d"><path d="M 594 -20.140625 L 857.539062 135.367188 L 588.453125 591.394531 L 324.914062 435.890625 Z M 594 -20.140625 " clip-rule="nonzero"/></clipPath><clipPath id="46a92f5b09"><path d="M 628 415 L 631 415 L 631 421 L 628 421 Z M 628 415 " clip-rule="nonzero"/></clipPath><clipPath id="00b9baaf20"><path d="M 594 -20.140625 L 857.539062 135.367188 L 588.453125 591.394531 L 324.914062 435.890625 Z M 594 -20.140625 " clip-rule="nonzero"/></clipPath><clipPath id="2fa8cb0059"><path d="M 594 -20.140625 L 857.539062 135.367188 L 588.453125 591.394531 L 324.914062 435.890625 Z M 594 -20.140625 " clip-rule="nonzero"/></clipPath><clipPath id="4a36240d5b"><path d="M 594 -20.140625 L 857.539062 135.367188 L 588.453125 591.394531 L 324.914062 435.890625 Z M 594 -20.140625 " clip-rule="nonzero"/></clipPath><clipPath id="146a14b619"><path d="M 628 423 L 631 423 L 631 429 L 628 429 Z M 628 423 " clip-rule="nonzero"/></clipPath><clipPath id="0fd8314a65"><path d="M 594 -20.140625 L 857.539062 135.367188 L 588.453125 591.394531 L 324.914062 435.890625 Z M 594 -20.140625 " clip-rule="nonzero"/></clipPath><clipPath id="b63949b903"><path d="M 594 -20.140625 L 857.539062 135.367188 L 588.453125 591.394531 L 324.914062 435.890625 Z M 594 -20.140625 " clip-rule="nonzero"/></clipPath><clipPath id="7eab338b8f"><path d="M 594 -20.140625 L 857.539062 135.367188 L 588.453125 591.394531 L 324.914062 435.890625 Z M 594 -20.140625 " clip-rule="nonzero"/></clipPath></defs><g clip-path="url(#ff997d5bd0)"><path fill="#d65124" d="M 317.394531 168.191406 C 316.933594 167.65625 316.476562 167.117188 316.019531 166.585938 C 314.429688 168.25 312.851562 169.910156 311.269531 171.574219 C 311.75 172.019531 312.230469 172.464844 312.714844 172.902344 C 314.273438 171.335938 315.835938 169.757812 317.394531 168.191406 Z M 313.972656 149.730469 C 314.460938 150.390625 314.945312 151.054688 315.4375 151.714844 C 316.890625 150.152344 318.34375 148.582031 319.796875 147.019531 C 319.414062 146.644531 319.039062 146.269531 318.664062 145.894531 C 317.101562 147.171875 315.539062 148.453125 313.972656 149.730469 Z M 348.246094 126.464844 C 348.628906 126.898438 349.007812 127.332031 349.390625 127.765625 C 350.890625 126.394531 352.386719 125.027344 353.882812 123.660156 C 353.535156 123.296875 353.191406 122.933594 352.84375 122.570312 C 351.3125 123.867188 349.777344 125.167969 348.246094 126.464844 Z M 268.75 252.398438 C 269.351562 252.753906 269.960938 253.117188 270.566406 253.476562 C 273.398438 250.265625 276.238281 247.0625 281.035156 241.632812 C 277.175781 243.160156 275.90625 243.273438 275.316406 243.96875 C 273.007812 246.675781 270.917969 249.566406 268.75 252.398438 Z M 293.839844 186.796875 C 294.628906 187.621094 295.425781 188.449219 296.222656 189.273438 C 299.859375 185.503906 303.492188 181.734375 307.128906 177.964844 C 306.476562 177.332031 305.820312 176.707031 305.171875 176.074219 C 301.394531 179.652344 297.617188 183.222656 293.839844 186.796875 Z M 67.664062 159.828125 C 70.027344 163.585938 72.390625 167.351562 74.921875 171.386719 C 80.421875 165.089844 80.421875 165.089844 67.664062 159.828125 Z M 191.480469 389.90625 C 192.265625 390.773438 193.050781 391.640625 193.84375 392.507812 C 200.628906 384.488281 207.421875 376.476562 214.210938 368.457031 C 213.460938 367.820312 212.710938 367.175781 211.957031 366.539062 C 205.132812 374.328125 198.304688 382.109375 191.480469 389.90625 Z M 137.273438 242.089844 C 149.191406 253.246094 160.382812 265.125 174.824219 272.878906 C 165.511719 258.609375 151.210938 250.445312 137.273438 242.089844 Z M 348.59375 365.851562 C 333.460938 346.492188 290.71875 315.761719 277.40625 313.796875 C 302.066406 331.832031 325.332031 348.84375 348.59375 365.851562 Z M 79.738281 127.351562 C 93.703125 149.652344 113.484375 166.109375 132.640625 183.265625 C 131.421875 179.65625 129.148438 176.964844 126.800781 174.332031 C 120.84375 167.675781 113.757812 161.730469 109.132812 154.25 C 101.746094 142.316406 91.378906 134.234375 79.738281 127.351562 Z M 331.128906 188.859375 C 333.734375 187.105469 336.335938 185.363281 338.941406 183.617188 C 338.144531 182.878906 337.34375 182.144531 336.546875 181.40625 C 334.824219 183.996094 333.097656 186.585938 331.375 189.175781 C 321.671875 197.949219 311.820312 206.5625 302.355469 215.585938 C 299.433594 218.375 297.550781 222.257812 295.191406 225.644531 C 290.4375 226.128906 288.484375 229.25 288.53125 234.152344 C 290.683594 231.230469 292.832031 228.300781 294.980469 225.375 C 303.53125 217.867188 312.351562 210.632812 320.523438 202.730469 C 324.65625 198.726562 327.625 193.515625 331.128906 188.859375 Z M 383.527344 74.425781 C 392.242188 69.820312 396.441406 61.582031 401.085938 53.699219 C 392.359375 58.40625 383.960938 63.382812 383.828125 74.800781 C 374.34375 81.066406 365.964844 88.507812 359.5 97.992188 C 370.550781 93.316406 377.730469 84.601562 383.527344 74.425781 Z M 306.238281 261.628906 C 308.175781 259.554688 310.109375 257.480469 312.046875 255.40625 C 311.273438 254.945312 310.496094 254.480469 309.726562 254.023438 C 308.675781 256.703125 307.621094 259.378906 306.566406 262.054688 C 299.304688 262.28125 296.625 267.753906 293.175781 272.332031 C 293.75 272.941406 294.324219 273.558594 294.90625 274.171875 C 298.707031 270.015625 302.5 265.863281 306.238281 261.628906 Z M 49.375 474.007812 C 42.289062 479.96875 35.308594 486.066406 28.085938 491.851562 C 21 497.527344 19.6875 508.890625 8.519531 511.84375 C 10.816406 489.585938 28.71875 476.988281 36.414062 458.316406 C 29.34375 465.511719 22.277344 472.703125 15.207031 479.894531 C 14.386719 479.207031 13.5625 478.523438 12.730469 477.839844 C 14.550781 468.15625 24.390625 463.722656 29.257812 456.023438 C 34.503906 447.730469 41.210938 440.378906 47.03125 432.429688 C 52.847656 424.496094 58.195312 416.214844 64.039062 408.300781 C 69.886719 400.382812 76.050781 392.695312 82.160156 384.96875 C 88.269531 377.242188 94.453125 369.582031 100.652344 361.929688 C 106.851562 354.28125 113.089844 346.648438 119.367188 339.058594 C 125.640625 331.46875 131.984375 323.929688 138.308594 316.375 C 144.59375 308.867188 150.890625 301.371094 157.863281 293.054688 C 146.332031 282.933594 135.378906 273.492188 124.628906 263.835938 C 109.648438 250.382812 94.804688 236.769531 79.917969 223.214844 C 58.203125 203.453125 42.070312 179.023438 24.234375 156.042969 C 21.738281 152.828125 21.507812 147.835938 19.671875 141.839844 C 29.246094 143.34375 32.246094 151.011719 39.347656 153.121094 C 41.824219 149.804688 44.460938 146.269531 47.980469 141.546875 C 49.640625 145.945312 50.773438 148.96875 52.386719 153.253906 C 56.703125 143.328125 63.273438 150.398438 69.75 150.589844 C 67.988281 143.164062 61.046875 135.515625 72.625 131.929688 C 62.652344 113.183594 62.652344 113.183594 77.664062 106.425781 C 82.792969 111.015625 88.125 115.785156 93.644531 120.714844 C 96.515625 109.828125 91.9375 102.230469 84.976562 95.269531 C 81.363281 91.648438 78.34375 87.433594 75.0625 83.46875 C 71.816406 79.546875 69.691406 75.253906 69.421875 70.378906 C 70.242188 69.867188 71.0625 69.363281 71.882812 68.859375 C 87.636719 86.429688 103.011719 104.363281 119.25 121.464844 C 135.457031 138.539062 152.253906 155.082031 169.3125 171.3125 C 186.609375 187.761719 204.546875 203.550781 222.984375 220.34375 C 231.496094 211.59375 238.773438 203.921875 246.257812 196.441406 C 267.769531 174.953125 289.324219 153.5 310.945312 132.113281 C 336.207031 107.121094 361.429688 82.101562 386.953125 57.386719 C 392.441406 52.070312 399.011719 47.816406 405.351562 43.460938 C 407.535156 41.953125 410.515625 41.613281 416.203125 39.722656 C 406.585938 62.445312 387.734375 74.429688 376.835938 91.28125 C 379.828125 94.371094 382.519531 97.148438 385.777344 100.503906 C 393.132812 97.210938 401.503906 92.964844 408.179688 85.417969 C 412.652344 80.355469 414.082031 81.042969 422.175781 86.71875 C 415.050781 92.566406 408.109375 97.945312 401.542969 103.75 C 395.222656 109.328125 389.292969 115.34375 384.523438 123.003906 C 391.867188 117.984375 399 112.621094 406.617188 108.046875 C 413.960938 103.625 421.796875 100.011719 429.414062 96.046875 C 430.164062 96.867188 430.910156 97.679688 431.660156 98.5 C 428.742188 102.652344 425.832031 106.804688 423.136719 110.652344 C 430.09375 110.535156 437.222656 110.417969 444.925781 110.289062 C 446.867188 121.542969 430.183594 121.648438 432.816406 132.242188 C 427.453125 138.777344 422.082031 145.3125 416.507812 152.101562 C 418.347656 153.253906 419.992188 154.285156 422.394531 155.804688 C 381.78125 196.988281 341.425781 237.914062 300.113281 279.8125 C 345.472656 312.75 386.238281 348.234375 427.871094 385.082031 C 422.210938 387.722656 418.628906 389.398438 416.042969 390.601562 C 403.703125 390.199219 398.585938 372.855469 383.269531 380.167969 C 387.40625 383.902344 391.058594 387.292969 394.820312 390.5625 C 397.917969 393.246094 402.210938 394.789062 400.507812 400.695312 C 400.03125 402.332031 403.175781 405.5625 405.285156 407.3125 C 411.539062 412.5 418.140625 417.28125 424.535156 422.316406 C 426.417969 423.796875 428.039062 425.597656 431.378906 428.769531 C 421.285156 429.867188 417.117188 422.230469 409.421875 420.417969 C 399.957031 431.332031 391.328125 420.789062 379.808594 416.25 C 387.757812 426.902344 398.539062 431.828125 402.972656 443.261719 C 390.9375 448.484375 380.730469 451.910156 369.59375 441.742188 C 360.230469 433.199219 349.097656 426.59375 338.742188 419.125 C 338.191406 419.792969 337.640625 420.460938 337.089844 421.128906 C 355.6875 436.164062 374.273438 451.195312 394.492188 467.546875 C 386.65625 469.457031 383.207031 466.148438 379.5625 463.722656 C 334.234375 433.554688 290.695312 400.953125 248.363281 366.71875 C 243.757812 363 238.820312 359.699219 233.179688 355.574219 C 228.390625 360.703125 223.992188 365.183594 219.847656 369.898438 C 201.175781 391.117188 182.320312 412.183594 164.027344 433.71875 C 146.050781 454.886719 128.902344 476.753906 110.910156 497.910156 C 103.191406 506.992188 94.683594 515.519531 85.75 523.410156 C 79.832031 528.640625 72.273438 531.472656 61.386719 531.496094 C 65.164062 524.585938 67.742188 519.867188 70.722656 514.394531 C 68.234375 512.59375 65.644531 510.722656 63.039062 508.84375 C 65.171875 502.460938 67.3125 496.035156 70.027344 487.898438 C 65.289062 489.117188 61.828125 490.007812 58.476562 490.871094 C 52.648438 489.867188 49.59375 484.1875 49.089844 473.652344 C 57.714844 470.121094 58.464844 469.386719 61.699219 460.261719 C 55.746094 464.550781 51.652344 468.390625 49.375 474.007812 " fill-opacity="1" fill-rule="nonzero"/></g><g clip-path="url(#f81136adee)"><g clip-path="url(#62eca29b6f)"><g clip-path="url(#f294cc9afa)"><g clip-path="url(#b94888c902)"><path fill="#f13821" d="M 595.507812 521.78125 C 594.40625 524.152344 594.222656 526.183594 593.167969 528.421875 C 591.417969 525.410156 589.023438 524.316406 587.03125 528.007812 C 591.835938 528.007812 591.933594 535.847656 590.328125 538.746094 C 589.5625 540.140625 587.640625 536.652344 586.878906 539.117188 L 591.613281 541.910156 C 591.613281 541.910156 587.945312 545.277344 587.945312 545.277344 C 591.296875 548.78125 587.523438 548.746094 587.277344 550.660156 C 587.011719 552.695312 591.011719 557.542969 590.902344 561.753906 C 590.777344 566.4375 587.738281 572.769531 587.730469 577.710938 C 587.726562 582.199219 590.472656 581.976562 588.453125 588.5625 C 587.90625 590.351562 589.375 592.207031 586.40625 590.136719 L 583.398438 569.539062 C 583.988281 532.304688 580.078125 495.730469 581.382812 458.460938 C 578.238281 360.296875 583.371094 262.121094 586.613281 163.980469 C 584.574219 162.777344 569.546875 178.746094 566.957031 181.464844 C 557.308594 191.570312 546.046875 203.824219 537.203125 214.5625 C 528.660156 224.921875 519.910156 235.769531 514.609375 248.144531 C 512.664062 249.269531 505.109375 246.921875 504.523438 245.109375 L 507.144531 230.855469 L 503.050781 236.433594 C 500.589844 234.902344 498.363281 232.4375 496.875 235.996094 C 494.972656 234.339844 496.179688 231.789062 497.328125 229.847656 L 493.070312 228.964844 C 495.640625 221.582031 502.066406 217.113281 506.183594 211.445312 C 508.878906 207.738281 512.117188 201.257812 514.707031 197.679688 C 518.015625 193.113281 521.28125 189.023438 525.15625 185.402344 L 520.402344 182.597656 C 521.695312 178.871094 522.992188 180.972656 525.371094 182.320312 C 528.828125 179.949219 525.15625 177.167969 525.429688 176.660156 C 526.386719 174.902344 530.664062 172.855469 531.171875 169.730469 C 529.605469 168.40625 528.34375 171.085938 527.308594 172.210938 C 525.230469 174.460938 523.449219 177.84375 521.089844 179.445312 C 517.984375 181.542969 511.9375 179.527344 510.730469 188.089844 C 505.046875 186.234375 513.164062 181.882812 513.039062 181.460938 C 505.945312 178.421875 503.152344 189.847656 497.988281 193.402344 C 495.589844 192.308594 498.511719 190.34375 499.402344 189.105469 C 500.667969 187.363281 510.417969 177.667969 505.59375 177.839844 L 497.875 177.351562 L 499.34375 183.003906 C 495.199219 179.671875 496.882812 185.050781 495.976562 185.636719 C 495.640625 185.84375 492.011719 184.664062 489.003906 187.726562 C 482.820312 193.996094 475.246094 204.121094 471.207031 211.867188 C 469.484375 215.15625 469.789062 220.199219 467.476562 223.488281 L 464.839844 217.144531 L 458.351562 221.308594 C 455.65625 214.882812 460.425781 206.84375 463.710938 201.003906 C 495.101562 145.1875 559.765625 91.417969 604.167969 44.347656 C 606.164062 42.238281 616.722656 28.820312 617.75 28.570312 C 619.0625 28.25 625.367188 34.75 628.550781 33.339844 L 646.21875 19.816406 C 660.238281 12.476562 658.074219 19.351562 664.449219 28.003906 C 679.269531 48.164062 697.917969 67 711.554688 88.359375 C 712.285156 89.511719 712.921875 90.609375 713.09375 91.992188 L 710.027344 91.761719 C 710.148438 96.03125 714.171875 94.957031 716.519531 97.089844 C 719.433594 99.746094 722.386719 107.5 726.320312 110.195312 L 721.882812 112.335938 C 726.441406 117.40625 733.371094 119.917969 736.597656 126.207031 C 739.25 131.351562 738.492188 130.691406 742.429688 136.277344 C 743.824219 138.25 742.253906 143.042969 742.757812 143.902344 C 744.609375 147.050781 749.957031 152.105469 752.890625 154.691406 L 750.933594 156.691406 L 744.875 154.746094 L 755.546875 161.042969 C 755.714844 161.757812 753.347656 162.6875 752.988281 163.570312 C 752.367188 165.074219 761.546875 177.519531 763.464844 180.148438 L 762.070312 182.507812 C 762.070312 182.507812 756.628906 180.875 756.628906 180.875 L 772.5 205.503906 C 765.433594 205.398438 763.1875 192.335938 758.484375 189.988281 C 751.644531 197.421875 753.78125 189.59375 752.769531 187.417969 C 752.132812 186.054688 749.976562 186.226562 749.242188 185.203125 C 748.386719 184.03125 748.773438 181.480469 747.792969 180.605469 C 746.617188 179.566406 744.128906 180.984375 743.253906 180.519531 C 741.425781 179.546875 739.769531 171.675781 739.082031 170.628906 C 736.972656 167.460938 732.363281 164.820312 730.847656 160.878906 L 728.894531 162.878906 L 768.527344 223.179688 C 767.503906 224.285156 766.359375 224.867188 765.023438 223.601562 C 760.664062 219.503906 754.824219 209.855469 750.5 204.335938 C 749.675781 203.289062 750.761719 201.765625 750.046875 201.078125 C 747.609375 198.78125 743.113281 197.492188 740.925781 194.007812 L 743.492188 192.371094 C 741.390625 191.957031 736.941406 186.152344 735.324219 189.929688 L 747.828125 209.363281 L 741.910156 205.871094 C 741.875 207.960938 742.5 212.285156 743.574219 213.855469 C 745.855469 217.179688 753.519531 216.996094 749.957031 223.53125 C 752.230469 225.246094 756.175781 226.292969 758.035156 228.164062 C 758.921875 229.058594 757.90625 231 758.449219 232.257812 C 759.132812 233.808594 760.980469 234.792969 761.335938 236.5 C 761.484375 237.199219 759.730469 238.359375 760.183594 239.855469 C 760.910156 242.289062 764.585938 244.429688 763.695312 247.566406 C 756.976562 243.523438 753.488281 233.019531 748.636719 227.804688 C 747.410156 226.492188 744.871094 223.871094 743.835938 227.027344 C 745.09375 231.140625 750.871094 234.601562 751.8125 238.84375 C 752.707031 242.847656 747.148438 242.269531 755.871094 244.582031 L 752.570312 247.417969 C 758.121094 250.453125 755.757812 258.253906 762.117188 261.097656 L 757.644531 263.246094 C 759.5625 267.101562 766.0625 276.125 761.375 279.90625 C 755.871094 273.585938 749.863281 267.660156 744.6875 261.050781 C 728.648438 240.601562 713.921875 217.609375 699.191406 196.25 C 687.300781 178.992188 675.851562 161.304688 664.316406 143.804688 L 660.738281 142.765625 L 655.851562 195.425781 C 655.207031 211.804688 654.1875 229.140625 651.25 245.746094 C 650.863281 247.84375 653.398438 255.21875 653.46875 257.453125 C 654.207031 283.976562 652.167969 313.488281 650.789062 339.753906 C 650.6875 341.644531 646.6875 357.0625 645.8125 357.371094 L 643.199219 356.820312 L 646.433594 359.53125 C 644.535156 362.609375 638.417969 362.710938 635.796875 361.273438 L 634.671875 368.601562 L 631.109375 366.5 C 631.109375 366.5 626.578125 375.855469 626.578125 375.855469 L 622.449219 375.796875 C 626.824219 373.539062 624.007812 369.125 625.726562 365.355469 C 627.53125 361.394531 632.09375 361.894531 626.09375 357.3125 C 627.570312 353.453125 630.40625 347.425781 629.566406 343.242188 C 628.546875 338.230469 621.410156 337.65625 627.542969 329.164062 C 631.722656 330.132812 631.957031 330.191406 632.1875 334.550781 C 632.3125 337.136719 629.816406 340.824219 633.667969 339.996094 C 633.246094 337.957031 633.792969 336.753906 635.558594 338.652344 C 636.5625 339.753906 633.136719 341.847656 637.125 342.78125 L 638.753906 327.761719 C 635.503906 321.78125 636.75 334.460938 637.070312 334.730469 C 633.277344 334.285156 630.777344 323.1875 630.253906 322.71875 C 628.101562 320.753906 623.585938 320.492188 623.464844 320.15625 C 623.367188 319.910156 623.613281 315.109375 623.75 314.871094 C 624.371094 313.820312 627.890625 314.054688 628.941406 310.234375 C 630.164062 305.769531 622.90625 302.824219 623.726562 300.394531 L 629.640625 296.027344 C 624.613281 287.898438 632.105469 278.636719 628.609375 270.449219 L 622.238281 273.105469 C 620.875 276.367188 625.953125 277.625 626.4375 279.058594 C 627.191406 281.269531 623.15625 286.933594 621.1875 288.5 L 626.609375 290.121094 C 622.695312 294.496094 619.144531 287.9375 616.800781 289.0625 C 613.597656 290.597656 612.664062 295.390625 616.253906 296.816406 L 617.160156 292.566406 C 625.199219 295.410156 619.773438 301.03125 621.371094 307.050781 C 616.441406 309.890625 619.082031 302.972656 617.886719 301.46875 C 616.695312 299.960938 615.230469 299.367188 613.644531 298.480469 L 612.777344 318.632812 L 607.1875 320.28125 C 611.453125 322.691406 612.988281 325.789062 615.257812 320.3125 C 618.898438 321.871094 621.390625 325.882812 619.214844 329.753906 C 618.425781 331.136719 616.535156 327.640625 615.765625 330.125 C 619.925781 330.765625 617.585938 339.570312 621.703125 333.632812 L 623.003906 336.855469 C 616.105469 339.683594 614.347656 350.300781 616.003906 356.863281 C 616.640625 359.40625 619.207031 359.664062 619.253906 360.945312 C 619.339844 363.511719 616.210938 364.472656 615.515625 366.921875 C 614.171875 371.636719 616.476562 382.617188 615.75 387.054688 C 615.335938 389.617188 613.476562 388.464844 612.375 387.441406 L 612.179688 380.9375 L 609.480469 384.15625 C 608.828125 384.492188 602.699219 372.082031 601.445312 384.203125 L 598.085938 379.039062 L 597.375 385.808594 L 593.183594 387.34375 L 600.996094 390.351562 C 595.921875 392.113281 597.753906 399.101562 597.28125 399.359375 C 597 399.515625 593.386719 397.726562 591.628906 400.835938 C 592.988281 402.652344 597.46875 405.191406 597.699219 407.0625 C 597.765625 407.71875 597.363281 419.484375 597.1875 420.101562 C 596.050781 424.105469 591.019531 424.398438 594.417969 431.351562 C 595.296875 429.863281 594.5625 427.398438 596.058594 425.902344 L 596.09375 433.941406 C 595.785156 434.054688 594.78125 432.046875 594.4375 431.363281 C 593.746094 432.53125 590.246094 434.664062 590.453125 435.398438 C 592.847656 438.308594 593.566406 434.964844 594.261719 434.917969 C 599.484375 434.527344 597.339844 446.304688 593.632812 449.464844 C 592.449219 450.476562 587.222656 450.148438 587.96875 453.179688 C 588.304688 454.554688 593.800781 453.386719 594.039062 453.207031 C 595.242188 452.390625 594.773438 446.128906 596.582031 449.441406 L 597.058594 459.398438 L 595.90625 460.855469 C 587.503906 459.667969 598.289062 465.683594 597.609375 469.320312 L 592.878906 466.527344 C 593.125 467.558594 593.488281 473.546875 593.746094 473.882812 C 594.601562 475.054688 596.835938 474.074219 597.449219 476.335938 C 597.832031 477.765625 597.453125 485.105469 597.027344 486.59375 C 596.605469 488.082031 590.082031 481.71875 587.359375 484.070312 C 586.925781 489.238281 589.480469 491.332031 591.074219 495.1875 C 591.507812 496.21875 590.730469 498.167969 591.140625 499.238281 C 591.832031 501.007812 599.6875 498.960938 598.808594 505.285156 L 592.054688 500.496094 L 589.949219 504.066406 C 589.949219 504.066406 594.191406 504.96875 594.191406 504.96875 L 589.875 515.226562 L 593.796875 516.628906 C 594.417969 518.066406 593.746094 519.113281 593.144531 520.359375 C 592.441406 519.785156 592.113281 517.453125 590.28125 517.070312 C 588.597656 519.066406 589.292969 521.777344 591.734375 522.707031 C 592.1875 521.933594 592.746094 521.167969 593.136719 520.328125 C 593.808594 520.859375 594.738281 521.277344 595.511719 521.730469 C 595.953125 520.761719 597.003906 518.121094 598.210938 518.511719 C 599.417969 522.351562 599.183594 523.789062 595.511719 521.730469 Z M 723.113281 121.109375 L 721.347656 120.070312 C 721.347656 120.070312 718.15625 121.363281 718.15625 121.363281 L 721.71875 123.46875 C 721.71875 123.46875 723.113281 121.109375 723.113281 121.109375 Z M 754.183594 171.492188 L 750.300781 169.976562 L 751.03125 172.8125 L 752.792969 173.851562 C 752.792969 173.851562 754.183594 171.492188 754.183594 171.492188 Z M 740.535156 216.339844 L 736.503906 212.359375 L 735.113281 214.71875 C 735.113281 214.71875 739.84375 217.507812 739.84375 217.507812 Z M 576.777344 127.730469 L 572.746094 123.75 C 571.964844 126.386719 573.78125 127.96875 576.105469 128.910156 L 576.796875 127.742188 Z M 567.140625 133.246094 L 571.820312 127.988281 C 571.429688 125.484375 560.117188 138.457031 557.488281 138.75 C 561.835938 142.730469 565.417969 137.117188 569.1875 135.253906 L 567.160156 133.257812 Z M 744.683594 236.402344 C 746.355469 234.476562 745.695312 231.707031 743.234375 230.761719 C 741.5625 232.691406 742.222656 235.460938 744.683594 236.402344 Z M 750.613281 239.929688 L 746.582031 235.945312 C 745.800781 238.585938 747.617188 240.164062 749.941406 241.109375 L 750.632812 239.941406 Z M 538.238281 163.90625 C 538.300781 160.414062 544.105469 158.894531 546.023438 156.816406 C 547.441406 155.277344 549.117188 150.089844 551.871094 148.265625 C 543.851562 150.054688 539.949219 163.042969 531.65625 163.574219 L 533.167969 159.65625 C 528.84375 161.648438 524.300781 163.460938 523.890625 168.589844 C 526.824219 172.03125 528.59375 165.191406 530.8125 166.3125 C 534.765625 168.296875 529.449219 173.421875 532.761719 173.824219 C 534.457031 174.023438 539.351562 167.316406 539.769531 166.199219 C 540.113281 165.253906 538.242188 164.308594 538.238281 163.90625 Z M 632.558594 195.902344 L 630.203125 194.515625 L 628.8125 196.875 L 631.167969 198.261719 Z M 620.53125 200.007812 L 618.175781 198.617188 C 618.175781 198.617188 616.566406 204.054688 616.566406 204.054688 L 617.734375 204.746094 C 617.734375 204.746094 620.53125 200.007812 620.53125 200.007812 Z M 539.109375 153.566406 L 536.753906 152.175781 L 535.359375 154.535156 L 537.71875 155.925781 Z M 558.601562 166.671875 L 556.246094 165.28125 L 554.855469 167.640625 L 557.210938 169.03125 Z M 616.050781 272.691406 C 618.304688 270.679688 616.671875 267.65625 617.285156 265.800781 C 617.875 264.035156 619.839844 263.324219 620.507812 261.019531 C 622.660156 253.707031 619.480469 237.613281 619.824219 229.929688 C 620.164062 222.246094 624.632812 214.722656 620.59375 208.089844 C 619.152344 210.074219 616.523438 211.273438 615.589844 213.71875 C 615.210938 214.722656 617.089844 215.699219 617.121094 216.730469 C 617.128906 218.796875 615.375 221.183594 615.703125 222.527344 C 616.003906 223.691406 619.960938 224.582031 618.195312 230.199219 C 615.570312 238.539062 614.980469 248.132812 614.960938 255.582031 C 614.9375 261.234375 612.457031 267.46875 616.058594 272.722656 Z M 630.898438 228.578125 L 627.351562 226.484375 L 625.960938 228.84375 L 629.503906 230.9375 Z M 513.15625 170.089844 L 516.113281 164.082031 L 508.472656 167.539062 L 513.136719 170.078125 Z M 628.382812 238.265625 L 629.179688 235.558594 L 625.507812 234.992188 L 624.117188 237.351562 C 624.117188 237.351562 628.394531 238.246094 628.394531 238.246094 Z M 641.417969 245.984375 L 639.0625 244.59375 L 637.667969 246.953125 L 640.027344 248.34375 Z M 507.355469 174.898438 L 510.746094 174.492188 L 510.035156 171.667969 Z M 651.191406 256.5625 L 646.460938 253.773438 C 646.460938 253.773438 645.066406 256.132812 645.066406 256.132812 L 649.085938 260.132812 L 651.179688 256.582031 Z M 628.191406 253.789062 C 629.167969 252.949219 631.183594 249.621094 630.535156 248.277344 C 619.957031 240.378906 625.625 247.734375 623.523438 254.644531 C 624.203125 254.941406 628.003906 253.921875 628.171875 253.78125 Z M 525.039062 204.550781 C 526.464844 203.042969 526.007812 201.78125 525.371094 199.964844 L 522.546875 200.675781 Z M 516.675781 213.703125 C 516.597656 213.203125 521.097656 210.191406 518.546875 208.769531 C 517.078125 207.953125 515.910156 211.113281 515.078125 211.480469 C 511.859375 212.867188 506.800781 211.03125 505.738281 215.589844 L 511.171875 217.195312 L 504.597656 222.910156 C 505.460938 226.46875 512.402344 219.816406 513.273438 219.15625 L 512.566406 214.835938 C 515.09375 216.296875 518.664062 219.609375 517.859375 214.777344 C 517.8125 214.535156 516.796875 214.3125 516.675781 213.703125 Z M 640.003906 283.617188 L 637.648438 282.226562 C 636.015625 285.992188 635.210938 288.351562 639.605469 289.769531 Z M 618.761719 287.09375 C 620.894531 284.929688 618.457031 282.769531 618.714844 280.703125 C 618.84375 279.628906 620.269531 278.707031 620.40625 277.933594 C 621.183594 273.3125 618.578125 271.480469 615.835938 275.769531 L 618.695312 279.0625 L 611.871094 279.820312 L 614.003906 286.023438 L 618.75 287.113281 Z M 639.355469 292.859375 L 636.980469 291.457031 C 636.980469 291.457031 636.09375 295.71875 636.09375 295.71875 L 637.261719 296.40625 C 637.261719 296.40625 639.355469 292.859375 639.355469 292.859375 Z M 639.898438 302.800781 L 637.539062 301.410156 C 637.539062 301.410156 636.5 303.175781 636.5 303.175781 L 637.230469 306.011719 Z M 506.734375 227.433594 L 504.359375 226.03125 C 504.359375 226.03125 503.472656 230.292969 503.472656 230.292969 L 504.640625 230.980469 C 504.640625 230.980469 506.734375 227.433594 506.734375 227.433594 Z M 468.804688 213.042969 L 466.449219 211.65625 L 465.058594 214.015625 L 467.414062 215.402344 Z M 602.941406 292.195312 L 600.585938 290.804688 L 599.191406 293.164062 L 601.546875 294.554688 Z M 633.429688 324.617188 C 635.097656 323.597656 633.972656 319.351562 633.179688 319.660156 C 631.507812 320.679688 632.632812 324.925781 633.429688 324.617188 Z M 600.523438 318.003906 C 602.148438 315.972656 602.957031 313.882812 600.972656 311.855469 C 599.347656 313.890625 598.539062 315.980469 600.523438 318.003906 Z M 602.183594 320.617188 C 594.304688 316.421875 601.832031 331.664062 603.925781 331.238281 L 604.539062 322.007812 L 601.375 323.347656 Z M 637.664062 352.726562 L 636.214844 347.085938 L 634.109375 350.652344 C 634.109375 350.652344 637.652344 352.746094 637.652344 352.746094 Z M 599.164062 363.6875 C 604.238281 360.109375 603.429688 356.367188 603.792969 350.914062 C 604.222656 344.351562 603.46875 330.652344 594.765625 338.664062 C 598.332031 338.816406 600.464844 341.308594 601.90625 344.429688 L 598.363281 348.808594 C 602.449219 349.027344 601.03125 351.34375 601.339844 354.574219 L 597.105469 353.652344 L 597.078125 367.269531 L 602.726562 365.792969 Z M 611.691406 361.457031 C 614.816406 354.988281 614.304688 350.515625 610.402344 344.6875 C 608.980469 345.15625 610.949219 357.464844 606.90625 350.613281 L 604.582031 357.261719 L 607.539062 354.96875 L 610.828125 356.136719 Z M 634.628906 360.582031 L 631.796875 357.28125 C 630.371094 358.792969 630.851562 360.066406 631.484375 361.882812 L 633.246094 362.921875 C 633.246094 362.921875 634.640625 360.5625 634.640625 360.5625 Z M 613.851562 365.9375 C 609.691406 362.949219 608.761719 368.816406 606.09375 370.984375 L 611.558594 372.582031 Z M 612.296875 379.429688 C 614.851562 375.054688 611.347656 372.988281 608.753906 377.339844 Z M 599 374.820312 C 600.671875 373.800781 599.546875 369.554688 598.75 369.859375 C 597.082031 370.878906 598.207031 375.125 599 374.820312 Z M 600.222656 375.511719 C 604.589844 378.0625 606.660156 374.554688 602.316406 371.964844 Z M 589.242188 470.023438 C 590.910156 469.003906 589.785156 464.757812 588.992188 465.0625 C 587.324219 466.082031 588.449219 470.328125 589.242188 470.023438 Z M 589.242188 470.023438 " fill-opacity="1" fill-rule="nonzero"/></g></g></g></g><g clip-path="url(#b465bd5d0f)"><g clip-path="url(#40e8371b90)"><g clip-path="url(#515807830e)"><g clip-path="url(#aea001e9a2)"><path fill="#f13821" d="M 494.5625 207.390625 L 491.0625 205.40625 L 479.527344 219.34375 C 483.671875 211.417969 481.925781 202.34375 492.011719 199.5 L 494.59375 207.382812 Z M 494.5625 207.390625 " fill-opacity="1" fill-rule="nonzero"/></g></g></g></g><g clip-path="url(#bc8bd4a349)"><g clip-path="url(#f11d28d0c8)"><g clip-path="url(#16dffec54b)"><g clip-path="url(#bfd089fe35)"><path fill="#f13821" d="M 625.558594 384.046875 L 630.109375 376.335938 C 635.777344 376.367188 633.691406 383.339844 634.910156 387.160156 C 631.261719 388.722656 628.527344 385.667969 625.570312 384.027344 Z M 625.558594 384.046875 " fill-opacity="1" fill-rule="nonzero"/></g></g></g></g><g clip-path="url(#5afaf9ca9e)"><g clip-path="url(#50b648cad3)"><g clip-path="url(#a2a6208073)"><g clip-path="url(#ea18c8b34a)"><path fill="#f13821" d="M 606.660156 388.933594 C 611.402344 381.578125 610.007812 396.066406 608.605469 396.496094 L 602.964844 392.984375 L 604.054688 382.585938 L 606.679688 388.945312 Z M 606.660156 388.933594 " fill-opacity="1" fill-rule="nonzero"/></g></g></g></g><g clip-path="url(#026629a91d)"><g clip-path="url(#697ba800f3)"><g clip-path="url(#fa5bc3a483)"><g clip-path="url(#24682e7260)"><path fill="#f13821" d="M 476.367188 211.089844 L 481.152344 200.308594 L 488.070312 193.964844 C 484.664062 200.054688 481.28125 206.105469 476.367188 211.089844 Z M 476.367188 211.089844 " fill-opacity="1" fill-rule="nonzero"/></g></g></g></g><g clip-path="url(#ea22ffd634)"><g clip-path="url(#4263b9c225)"><g clip-path="url(#3ecf55f1b1)"><g clip-path="url(#0a6d4e211b)"><path fill="#f13821" d="M 608.238281 410.6875 C 607.347656 410.886719 600.484375 402.34375 603.925781 401.757812 C 606.855469 403.941406 610.898438 406.40625 608.238281 410.6875 Z M 608.238281 410.6875 " fill-opacity="1" fill-rule="nonzero"/></g></g></g></g><g clip-path="url(#34aab3bdd5)"><g clip-path="url(#2e88cbb251)"><g clip-path="url(#6cfeccffdf)"><g clip-path="url(#e63682baaa)"><path fill="#f13821" d="M 613.53125 423.433594 C 611.675781 419.5625 612.683594 413.285156 613.925781 409.234375 C 615.457031 413.15625 615.484375 419.667969 613.53125 423.433594 Z M 613.53125 423.433594 " fill-opacity="1" fill-rule="nonzero"/></g></g></g></g><g clip-path="url(#291514534e)"><g clip-path="url(#425273227f)"><g clip-path="url(#a682a8e64f)"><g clip-path="url(#770c564a09)"><path fill="#f13821" d="M 506.101562 191.320312 C 506.792969 193.226562 510.757812 192.703125 507.726562 195.941406 L 500.886719 196.71875 L 505.789062 188.410156 C 507.953125 189.042969 505.675781 190.1875 506.089844 191.339844 Z M 506.101562 191.320312 " fill-opacity="1" fill-rule="nonzero"/></g></g></g></g><g clip-path="url(#27bce879b9)"><g clip-path="url(#2f0b02b7ca)"><g clip-path="url(#c60056cf85)"><g clip-path="url(#62e2265366)"><path fill="#f13821" d="M 642.707031 368.558594 L 637.671875 370.265625 L 637.488281 363.875 Z M 642.707031 368.558594 " fill-opacity="1" fill-rule="nonzero"/></g></g></g></g><g clip-path="url(#396a3541f5)"><g clip-path="url(#9482480946)"><g clip-path="url(#4cf87e00e8)"><g clip-path="url(#2301f644b7)"><path fill="#f13821" d="M 614.050781 433.363281 L 611.785156 426.390625 L 612.828125 424.625 C 615.246094 423.964844 615.921875 431.824219 614.0625 433.34375 Z M 614.050781 433.363281 " fill-opacity="1" fill-rule="nonzero"/></g></g></g></g><g clip-path="url(#b0b886499b)"><g clip-path="url(#a74c284a86)"><g clip-path="url(#386316859f)"><g clip-path="url(#f7bde45795)"><path fill="#f13821" d="M 629.71875 404.144531 L 625.578125 401.703125 C 626.6875 394.441406 632.777344 398.597656 629.71875 404.144531 Z M 629.71875 404.144531 " fill-opacity="1" fill-rule="nonzero"/></g></g></g></g><g clip-path="url(#03ec564bb5)"><g clip-path="url(#2997fd788a)"><g clip-path="url(#3813e70c7c)"><g clip-path="url(#7332693551)"><path fill="#f13821" d="M 501.183594 209.695312 L 498.828125 208.304688 C 499.851562 205.941406 500.835938 204.8125 503.40625 204.617188 Z M 501.183594 209.695312 " fill-opacity="1" fill-rule="nonzero"/></g></g></g></g><g clip-path="url(#f0e64de1ca)"><g clip-path="url(#4dbcea01ac)"><g clip-path="url(#0b4ba30e8f)"><g clip-path="url(#63c06d1a2e)"><path fill="#f13821" d="M 641.152344 382.050781 L 638.796875 380.660156 C 638.796875 380.660156 641.605469 375.902344 641.605469 375.902344 C 643.585938 377.925781 642.761719 380.003906 641.152344 382.050781 Z M 641.152344 382.050781 " fill-opacity="1" fill-rule="nonzero"/></g></g></g></g><g clip-path="url(#97d2175ef8)"><g clip-path="url(#bb4b9d964a)"><g clip-path="url(#2ae85d915e)"><g clip-path="url(#b0abea5741)"><path fill="#f13821" d="M 614.40625 446.378906 L 612.039062 445.007812 L 614.359375 438.359375 L 615.496094 439.054688 Z M 614.40625 446.378906 " fill-opacity="1" fill-rule="nonzero"/></g></g></g></g><g clip-path="url(#0a1d552d02)"><g clip-path="url(#41059f78db)"><g clip-path="url(#fcca556b45)"><g clip-path="url(#156be193be)"><path fill="#f13821" d="M 614.058594 398.113281 C 612.621094 396.113281 611.683594 393.179688 613.320312 391.261719 C 614.757812 393.257812 615.699219 396.191406 614.058594 398.113281 Z M 614.058594 398.113281 " fill-opacity="1" fill-rule="nonzero"/></g></g></g></g><g clip-path="url(#46d07717fa)"><g clip-path="url(#019140939d)"><g clip-path="url(#35e9b0d6a4)"><g clip-path="url(#21ba382c65)"><path fill="#f13821" d="M 638.613281 391.777344 L 636.238281 390.375 L 638.363281 386.820312 L 639.636719 390.003906 Z M 638.613281 391.777344 " fill-opacity="1" fill-rule="nonzero"/></g></g></g></g><g clip-path="url(#ae7ba1d3e7)"><g clip-path="url(#8744823348)"><g clip-path="url(#e71143fee2)"><g clip-path="url(#357153d8c9)"><path fill="#f13821" d="M 499.769531 212.09375 L 498.726562 213.859375 L 495.320312 214.253906 L 497.414062 210.703125 Z M 499.769531 212.09375 " fill-opacity="1" fill-rule="nonzero"/></g></g></g></g><g clip-path="url(#6cb74f2580)"><g clip-path="url(#0940639024)"><g clip-path="url(#bf4f19d97a)"><g clip-path="url(#cef31aa15c)"><path fill="#f13821" d="M 502.328125 202.378906 L 499.949219 200.976562 L 501.011719 199.222656 L 503.839844 198.457031 Z M 502.328125 202.378906 " fill-opacity="1" fill-rule="nonzero"/></g></g></g></g><g clip-path="url(#60b411528a)"><g clip-path="url(#66e99b10f2)"><g clip-path="url(#bf423e0654)"><g clip-path="url(#68e6fa8d2d)"><path fill="#f13821" d="M 618.015625 315.496094 L 615.640625 314.09375 L 617.753906 310.558594 L 618.902344 311.234375 Z M 618.015625 315.496094 " fill-opacity="1" fill-rule="nonzero"/></g></g></g></g><g clip-path="url(#46a92f5b09)"><g clip-path="url(#00b9baaf20)"><g clip-path="url(#2fa8cb0059)"><g clip-path="url(#4a36240d5b)"><path fill="#f13821" d="M 629.804688 420.234375 C 629.011719 420.539062 627.886719 416.296875 629.554688 415.273438 C 630.351562 414.96875 631.472656 419.214844 629.804688 420.234375 Z M 629.804688 420.234375 " fill-opacity="1" fill-rule="nonzero"/></g></g></g></g><g clip-path="url(#146a14b619)"><g clip-path="url(#0fd8314a65)"><g clip-path="url(#b63949b903)"><g clip-path="url(#7eab338b8f)"><path fill="#f13821" d="M 629.859375 428.285156 C 629.0625 428.589844 627.941406 424.347656 629.609375 423.328125 C 630.402344 423.019531 631.527344 427.265625 629.859375 428.285156 Z M 629.859375 428.285156 " fill-opacity="1" fill-rule="nonzero"/></g></g></g></g></svg>